<svg width="36" height="36" viewBox="0 0 36 36" fill="none" xmlns="http://www.w3.org/2000/svg">
<rect width="36" height="36" rx="6" fill="#BF9165"/>
<g clip-path="url(#clip0_16024_367)">
<path d="M18.0003 22.1665C16.6053 22.1665 15.392 23.2207 14.7653 24.7757C14.4653 25.519 14.8953 26.3332 15.4653 26.3332H20.5345C21.1053 26.3332 21.5345 25.519 21.2353 24.7757C20.6087 23.2207 19.3953 22.1665 18.0003 22.1665Z" stroke="white" stroke-width="2" stroke-linecap="round"/>
<path d="M23.4171 12.1665H24.4187C25.4196 12.1665 25.9196 12.1665 26.1812 12.4807C26.4421 12.7957 26.3337 13.2673 26.1162 14.2115L25.7912 15.6282C25.3004 17.7565 23.5087 19.3398 21.3337 19.6665M12.5837 12.1665H11.5821C10.5812 12.1665 10.0804 12.1665 9.81958 12.4807C9.55874 12.7957 9.66708 13.2673 9.88458 14.2115L10.2096 15.6282C10.7004 17.7565 12.4921 19.3398 14.6671 19.6665" stroke="white" stroke-width="2" stroke-linecap="round" stroke-linejoin="round"/>
<path d="M18.0013 22.1665C20.5179 22.1665 22.6388 18.2815 23.2763 12.9915C23.4521 11.5298 23.5404 10.7982 23.0738 10.2323C22.6071 9.6665 21.8529 9.6665 20.3454 9.6665H15.6571C14.1488 9.6665 13.3954 9.6665 12.9288 10.2323C12.4621 10.7982 12.5513 11.5298 12.7263 12.9923C13.3638 18.2815 15.4846 22.1665 18.0013 22.1665Z" stroke="white" stroke-width="2" stroke-linecap="round"/>
</g>
<defs>
<clipPath id="clip0_16024_367">
<rect width="20" height="20" fill="white" transform="translate(8 8)"/>
</clipPath>
</defs>
</svg>
